<svg xmlns="http://www.w3.org/2000/svg" width="32" height="32" id="bet"><g color="#000"><path style="line-height:normal;text-indent:0;text-align:start;text-decoration-line:none;text-decoration-style:solid;text-decoration-color:#000;text-transform:none;block-progression:tb;isolation:auto;mix-blend-mode:normal" fill="#373748" d="M3.502 1031.598c-1.93 0-3.5 1.57-3.5 3.5v7.433c0 1.93 1.57 3.5 3.5 3.5h7.59c1.93 0 3.5-1.57 3.5-3.5v-7.433c0-1.93-1.57-3.5-3.5-3.5h-7.59zm0 1h7.59c1.393 0 2.5 1.106 2.5 2.5v7.433c0 1.394-1.107 2.5-2.5 2.5h-7.59a2.484 2.484 0 0 1-2.5-2.5v-7.433c0-1.394 1.106-2.5 2.5-2.5z" font-family="sans-serif" font-weight="400" overflow="visible" transform="translate(0 -1020.362)"></path><path style="isolation:auto;mix-blend-mode:normal" fill="#2b4255" d="M5.122 1035.322a1.359 1.343 0 0 1-1.359 1.343 1.359 1.343 0 0 1-1.359-1.343 1.359 1.343 0 0 1 1.36-1.344 1.359 1.343 0 0 1 1.358 1.344zm7.067 6.986a1.359 1.343 0 0 1-1.359 1.343 1.359 1.343 0 0 1-1.359-1.343 1.359 1.343 0 0 1 1.36-1.344 1.359 1.343 0 0 1 1.358 1.344zm-3.533-3.493a1.359 1.343 0 0 1-1.36 1.343 1.359 1.343 0 0 1-1.358-1.343 1.359 1.343 0 0 1 1.359-1.344 1.359 1.343 0 0 1 1.359 1.344z" overflow="visible" transform="translate(0 -1020.362)"></path><path style="line-height:normal;text-indent:0;text-align:start;text-decoration-line:none;text-decoration-style:solid;text-decoration-color:#000;text-transform:none;block-progression:tb;isolation:auto;mix-blend-mode:normal" fill="#373748" d="M23.685 1028.82c-1.674-.955-3.828-.37-4.803 1.3l-3.761 6.44a3.461 3.461 0 0 0 1.264 4.76l6.573 3.751c1.674.956 3.827.372 4.802-1.298l3.76-6.439a3.463 3.463 0 0 0-1.262-4.762l-6.573-3.751zm-.505.864 6.574 3.752c1.205.687 1.604 2.193.898 3.402l-3.76 6.44a2.514 2.514 0 0 1-3.43.93l-6.573-3.752a2.454 2.454 0 0 1-.9-3.4l3.761-6.44a2.515 2.515 0 0 1 3.43-.932z" font-family="sans-serif" font-weight="400" overflow="visible" transform="translate(0 -1020.362)"></path><path style="isolation:auto;mix-blend-mode:normal" fill="#2b4255" d="M540.956 885.57a1.355 1.347 0 0 1-1.356 1.348 1.355 1.347 0 0 1-1.355-1.348 1.355 1.347 0 0 1 1.355-1.347 1.355 1.347 0 0 1 1.356 1.347zm7.046 7.007a1.355 1.347 0 0 1-1.355 1.347 1.355 1.347 0 0 1-1.355-1.347 1.355 1.347 0 0 1 1.355-1.347 1.355 1.347 0 0 1 1.355 1.347zm-3.523-3.503a1.355 1.347 0 0 1-1.355 1.347 1.355 1.347 0 0 1-1.355-1.347 1.355 1.347 0 0 1 1.355-1.348 1.355 1.347 0 0 1 1.355 1.348z" overflow="visible" transform="matrix(.8685 .49569 -.50433 .86351 0 -1020.362)"></path><path style="isolation:auto;mix-blend-mode:normal" fill="#2b4255" d="M540.956-892.577a1.355 1.347 0 0 1-1.356 1.347 1.355 1.347 0 0 1-1.355-1.347 1.355 1.347 0 0 1 1.355-1.347 1.355 1.347 0 0 1 1.356 1.347zm7.046 7.007a1.355 1.347 0 0 1-1.355 1.347 1.355 1.347 0 0 1-1.355-1.347 1.355 1.347 0 0 1 1.355-1.348 1.355 1.347 0 0 1 1.355 1.348z" overflow="visible" transform="matrix(.8685 .49569 .50433 -.86351 0 -1020.362)"></path></g></svg>